<?xml version="1.0" standalone="no"?>
<!DOCTYPE svg PUBLIC "-//W3C//DTD SVG 20010904//EN"
 "http://www.w3.org/TR/2001/REC-SVG-20010904/DTD/svg10.dtd">
<svg version="1.0" xmlns="http://www.w3.org/2000/svg"
 width="50.000000pt" height="50.000000pt" viewBox="0 0 50.000000 50.000000"
 preserveAspectRatio="xMidYMid meet">

<g transform="translate(0.000000,50.000000) scale(0.100000,-0.100000)"
fill="#000000" stroke="none">
<path d="M145 432 c-116 -55 -125 -60 -125 -73 0 -5 93 -9 231 -9 180 0 230 3
227 13 -4 11 -169 97 -214 110 -12 4 -57 -12 -119 -41z"/>
<path d="M63 316 c13 -11 17 -29 17 -90 0 -74 1 -76 25 -76 25 0 25 1 25 80 0
79 0 80 25 80 25 0 25 -1 25 -80 0 -79 0 -80 25 -80 25 0 25 1 25 80 0 73 2
80 20 80 18 0 20 -7 20 -80 0 -79 0 -80 25 -80 25 0 25 1 25 80 0 79 0 80 25
80 25 0 25 -1 25 -80 0 -79 0 -80 25 -80 24 0 25 2 25 76 0 61 4 79 18 90 14
11 -15 13 -188 13 -173 0 -202 -2 -187 -13z"/>
<path d="M57 124 c-20 -20 10 -24 194 -24 156 0 200 3 197 13 -4 9 -53 13
-194 15 -105 1 -193 -1 -197 -4z"/>
<path d="M27 74 c-4 -4 -7 -16 -7 -26 0 -17 14 -18 231 -18 l230 0 -3 23 c-3
22 -3 22 -224 25 -121 1 -223 -1 -227 -4z"/>
</g>
</svg>
